:SAMPLES-PER-SECOND 30
:FULLY-SPECIFIED
:DEGREES
242
root  34.97044721 36.49230717 -14.9824548 7.936269283 -6.992257118 4.112637997
lowerback  -7.576919556 -1.030679941 -0.9440069795
upperback  -3.715719938 -0.8572829962 -3.761519909
thorax  0.3660520017 -0.2732340097 -3.418659925
lowerneck  -8.842229843 -9.463500023 -5.403570175
upperneck  13.60350037 -13.24500084 9.614760399
head  6.60763979 -5.82528019 2.758569956
lclavicle  0 -4.497500157e-015 -2.743230041e-014
lhumerus  -46.68669891 27.55209923 64.79299927
lradius  0.004719055258 -6.507048965e-006 30.34705353
lwrist  4.824992743e-007 -3.790274832e-007 -28.03450012
lhand  -4.434880909e-031 -37.22969818 -10.60229969
lfingers  90 7.125020027 -90
lthumb  94.95468583 -25.42763267 101.4148037
rclavicle  0 -4.497500157e-015 -2.743230041e-014
rhumerus  -36.18349838 -34.38450241 -3.72145009
rradius  -5.16745672e-007 2.214343908e-008 60.92219925
rwrist  -7.499573258e-005 0.03438235447 -175.3430023
rhand  -1.769295038e-031 3.722330093 -6.640019894
rfingers  -90 -7.125020027 -90
rthumb  -84.78023674 -9.264080233 -60.42619862
rfemur  -12.66603565 17.03170013 12.08883476
rtibia  -1.507681727 -1.46973598 21.58919525
rfoot  0.1080796421 -22.5016861 -35.31600952
rtoes  3.804322186 19.64940691 -101.1858449
lfemur  -8.289681435 -17.51776314 -21.12845039
ltibia  1.938963532 -2.203971863 15.69241905
lfoot  1.004195094 -21.90766144 39.18185425
ltoes  -8.686572381 -18.08507616 -116.2047165
243
root  34.96843774 36.492983 -14.97908915 7.950380802 -6.957288265 4.086120605
lowerback  -7.551710606 -1.032530069 -0.9513331652
upperback  -3.715250015 -0.8607410192 -3.757430077
thorax  0.3526319861 -0.2751550078 -3.41012001
lowerneck  -9.12969017 -9.013319969 -5.097970009
upperneck  13.67420006 -12.63490105 9.380490303
head  6.595650196 -5.525660038 2.691080093
lclavicle  0 -4.497500157e-015 -2.743230041e-014
lhumerus  -46.69380188 27.61499977 64.76049805
lradius  0.004719055258 -6.507048965e-006 30.36207581
lwrist  4.824992743e-007 -3.790274832e-007 -28.04319763
lhand  -4.412428216e-031 -36.84429932 -10.50650024
lfingers  90 7.125020027 -90
lthumb  94.75432895 -25.34737606 100.9941235
rclavicle  0 -4.497500157e-015 -2.743230041e-014
rhumerus  -36.68709946 -34.0223999 -3.813150644
rradius  -5.16745672e-007 2.214343908e-008 62.01330185
rwrist  -7.499573258e-005 0.03438235447 -175.8849945
rhand  -1.769298394e-031 3.723999977 -6.533070087
rfingers  -90 -7.125020027 -90
rthumb  -84.72635243 -9.357163753 -60.41590828
rfemur  -12.63562584 17.04093552 12.10898972
rtibia  -1.481822014 -1.43878746 21.53590393
rfoot  0.1318923384 -22.44835472 -35.33624649
rtoes  3.820423852 19.64640163 -101.2337325
lfemur  -8.305764198 -17.45963478 -21.07494926
ltibia  1.924459577 -2.138915539 15.69499016
lfoot  1.01237452 -22.03450394 39.16267776
ltoes  -8.685055204 -18.08578589 -116.1998292
244
root  34.96549711 36.49313318 -14.97702861 7.947514057 -6.898043633 4.054595947
lowerback  -7.494039536 -1.050759912 -0.983807683
upperback  -3.766160011 -0.8834499717 -3.741549969
thorax  0.2678489983 -0.2851420045 -3.375760078
lowerneck  -9.311280251 -8.555339813 -4.77203989
upperneck  13.75179958 -12.01290035 9.103949547
head  6.566009998 -5.22521019 2.611999989
lclavicle  0 -4.497500157e-015 -2.743230041e-014
lhumerus  -46.79130173 27.63279915 64.71549988
lradius  0.004719055258 -6.507048965e-006 30.37739944
lwrist  4.824992743e-007 -3.790274832e-007 -27.94549942
lhand  -4.408620093e-031 -36.77819824 -10.44270039
lfingers  90 7.125020027 -90
lthumb  94.71023339 -25.28705114 100.9178446
rclavicle  0 -4.497500157e-015 -2.743230041e-014
rhumerus  -37.15629959 -33.59569931 -3.911379337
rradius  -5.16745672e-007 2.214343908e-008 62.97449875
rwrist  -7.499573258e-005 0.03438235447 -176.6029968
rhand  -1.769276438e-031 3.713059902 -6.609200001
rfingers  -90 -7.125020027 -90
rthumb  -84.76703309 -9.290375165 -60.4328168
rfemur  -12.58912086 17.01741028 12.1507349
rtibia  -1.459829211 -1.426400423 21.48897934
rfoot  0.1474879235 -22.45239258 -35.35182953
rtoes  3.814760155 19.64746023 -101.2168874
lfemur  -8.294201851 -17.45994759 -21.03870964
ltibia  1.91272068 -2.134171486 15.70278549
lfoot  0.9735532999 -22.02886391 39.05775452
ltoes  -8.636013038 -18.10864396 -116.0419498
245
root  34.96346361 36.49395319 -14.97572951 7.954995632 -6.858361244 4.057134628
lowerback  -7.47453022 -1.053509951 -0.9628884196
upperback  -3.778340101 -0.8895519972 -3.734630108
thorax  0.2438959926 -0.2885240018 -3.38045001
lowerneck  -9.540789604 -8.118390083 -4.419710159
upperneck  13.85210037 -11.42679882 8.830789566
head  6.557149887 -4.937960148 2.522809982
lclavicle  0 -4.497500157e-015 -2.743230041e-014
lhumerus  -46.82519913 27.71750069 64.64689636
lradius  0.004719055258 -6.507048965e-006 30.36630058
lwrist  4.824992743e-007 -3.790274832e-007 -27.9897995
lhand  -4.411482276e-031 -36.82789993 -10.42749977
lfingers  90 7.125020027 -90
lthumb  94.73009732 -25.27043971 100.9695475
rclavicle  0 -4.497500157e-015 -2.743230041e-014
rhumerus  -37.7112999 -33.33890152 -4.021808624
rradius  -5.16745672e-007 2.214343908e-008 64.03959656
rwrist  -7.499573258e-005 0.03438235447 -176.9920044
rhand  -1.7689683e-031 3.555949926 -6.662799835
rfingers  -90 -7.125020027 -90
rthumb  -84.83104712 -9.23476954 -60.59055663
rfemur  -12.58291054 16.98788261 12.15806007
rtibia  -1.459228396 -1.443581104 21.49332237
rfoot  0.1211100519 -22.50723457 -35.39177704
rtoes  3.781161443 19.65370653 -101.1169754
lfemur  -8.256328583 -17.45140076 -21.04857254
ltibia  1.950088024 -2.097986221 15.63169765
lfoot  0.9696091413 -22.06006241 39.04260254
ltoes  -8.623854512 -18.11428585 -116.002838
246
root  34.96119582 36.49540098 -14.97316586 7.968020916 -6.812782764 4.036538601
lowerback  -7.471960068 -1.064180017 -0.971452415
upperback  -3.771728992 -0.9044749737 -3.721970081
thorax  0.2504949868 -0.2962729931 -3.363559961
lowerneck  -9.831910133 -7.674759865 -4.094089985
upperneck  13.99440002 -10.83209991 8.554189682
head  6.576910019 -4.6457901 2.434149981
lclavicle  0 -4.497500157e-015 -2.743230041e-014
lhumerus  -46.83280182 27.83620071 64.58370209
lradius  0.004719055258 -6.507048965e-006 30.32920265
lwrist  4.824992743e-007 -3.790274832e-007 -28.08880043
lhand  -4.41163801e-031 -36.83060074 -10.43150043
lfingers  90 7.125020027 -90
lthumb  94.73217371 -25.27425092 100.9727588
rclavicle  0 -4.497500157e-015 -2.743230041e-014
rhumerus  -38.24140167 -32.98559952 -4.191709518
rradius  -5.16745672e-007 2.214343908e-008 65.22709656
rwrist  -7.499573258e-005 0.03438235447 -177.2429962
rhand  -1.769033692e-031 3.589869976 -6.454050064
rfingers  -90 -7.125020027 -90
rthumb  -84.71902335 -9.418458689 -60.54056275
rfemur  -12.57650661 17.0099411 12.17846298
rtibia  -1.449937105 -1.417760372 21.47028351
rfoot  0.1212505475 -22.4610672 -35.45095062
rtoes  3.774924895 19.65485963 -101.0984333
lfemur  -8.274437904 -17.41163826 -21.00739098
ltibia  1.938706279 -2.048303843 15.64093876
lfoot  0.9768865108 -22.1659565 39.01689148
ltoes  -8.648619581 -18.10278367 -116.0825151
247
root  34.95906019 36.49683074 -14.9708455 7.971884727 -6.768484116 4.017084599
lowerback  -7.485780239 -1.06870997 -0.9585996866
upperback  -3.763520002 -0.9107249975 -3.724960089
thorax  0.2644329965 -0.2995469868 -3.374670029
lowerneck  -9.980560303 -7.233719826 -3.892250061
upperneck  13.97490025 -10.24890041 8.528599739
head  6.545539856 -4.35323 2.44907999
lclavicle  0 -4.497500157e-015 -2.743230041e-014
lhumerus  -46.8445015 27.87800026 64.55419922
lradius  0.004719055258 -6.507048965e-006 30.34860229
lwrist  4.824992743e-007 -3.790274832e-007 -28.08839989
lhand  -4.41239938e-031 -36.84379959 -10.32059956
lfingers  90 7.125020027 -90
lthumb  94.71496133 -25.16491572 100.9769476
rclavicle  0 -4.497500157e-015 -2.743230041e-014
rhumerus  -38.76190567 -32.77690506 -4.388838291
rradius  -5.16745672e-007 2.214343908e-008 66.29499817
rwrist  -7.499573258e-005 0.03438235447 -177.5189972
rhand  -0 3.52218008 -6.354489803
rfingers  -90 -7.125020027 -90
rthumb  -84.68567188 -9.501512572 -60.59862786
rfemur  -12.55999851 17.01760674 12.20396614
rtibia  -1.441128492 -1.37983048 21.44701195
rfoot  0.1284762472 -22.38483047 -35.49808121
rtoes  3.784653718 19.65305997 -101.1273589
lfemur  -8.294653893 -17.37657928 -20.97318268
ltibia  1.918778181 -2.026112318 15.67134476
lfoot  0.954960227 -22.21739578 38.91837311
ltoes  -8.662319993 -18.09640273 -116.1266147
248
root  34.95781365 36.50016785 -14.97000146 7.978038788 -6.744004726 4.005779743
lowerback  -7.490330696 -1.052549958 -0.9350888729
upperback  -3.769309998 -0.8911939859 -3.717020035
thorax  0.2616969943 -0.2901790142 -3.378249884
lowerneck  -10.22290039 -6.84637022 -3.566760063
upperneck  14.12580013 -9.729369164 8.211239815
head  6.568480015 -4.102159977 2.340640068
lclavicle  0 -4.497500157e-015 -2.743230041e-014
lhumerus  -46.8708992 27.85199928 64.59500122
lradius  0.004719055258 -6.507048965e-006 30.4015007
lwrist  4.824992743e-007 -3.790274832e-007 -27.96279907
lhand  -4.415294033e-031 -36.89390182 -10.32139969
lfingers  90 7.125020027 -90
lthumb  94.73826947 -25.16407413 101.0304618
rclavicle  0 -4.497500157e-015 -2.743230041e-014
rhumerus  -39.25120163 -32.35400009 -4.520368576
rradius  -5.16745672e-007 2.214343908e-008 67.33840179
rwrist  -7.499573258e-005 0.03438235447 -177.8159943
rhand  -1.768815779e-031 3.475539923 -6.282149792
rfingers  -90 -7.125020027 -90
rthumb  -84.66092541 -9.562019113 -60.63822645
rfemur  -12.55763435 17.02683449 12.22079182
rtibia  -1.43761301 -1.359564066 21.43849754
rfoot  0.141858235 -22.34421539 -35.49954605
rtoes  3.790391064 19.6519964 -101.1444184
lfemur  -8.305057526 -17.34962463 -20.94964981
ltibia  1.90987885 -2.003330469 15.6761198
lfoot  0.9470317364 -22.26111221 38.8795929
ltoes  -8.672849986 -18.0914898 -116.1605194
